<svg width="98" height="98" viewBox="0 0 98 98" fill="none" xmlns="http://www.w3.org/2000/svg">
<path fill-rule="evenodd" clip-rule="evenodd" d="M7.9 48.9C7.9 26.15 26.35 7.7 49.1 7.7C71.85 7.7 90.29 26.15 90.29 48.9C90.29 71.65 71.85 90.1 49.1 90.1C26.35 90.1 7.9 71.65 7.9 48.9ZM49 0C21.94 0 0 21.94 0 49C0 76.06 21.94 98 49 98C76.06 98 98 76.06 98 49C98 21.94 76.06 0 49 0Z" fill="#FC5000"/>
<path fill-rule="evenodd" clip-rule="evenodd" d="M32.48 26.85C17.6899 26.01 15.0899 43.93 24.5999 49.31C26.0199 50.12 27.5399 50.54 30.2899 51.62C27.9399 53.16 26.5899 54.27 24.8299 56.54C22.4199 59.65 20.3999 63.09 18.2699 66.39C17.2799 67.91 16.2899 69.44 15.3199 70.98H25.7399L35.7599 56.04C37.1599 53.97 38.66 52.67 40.93 52.39C41.3 52.34 41.6999 52.33 42.1099 52.33L45.96 52.37L45.9499 70.83H70.56C79.63 70.83 85.24 61.8 81.91 53.65C80.85 51.06 78.83 49.26 75.78 48.03C75.32 47.85 74.89 47.69 74.54 47.59C74.95 47.41 75.34 47.21 75.71 46.97C80.93 43.69 82.17 35.16 77.91 30.69C76.6699 29.39 75.07 28.37 73.15 27.65C71.64 27.09 69.96 26.85 67.6 26.85H32.48ZM46.2199 33.98V45.94C41.9399 45.94 37.66 45.94 33.39 45.94C30.1499 45.94 27.3199 43.36 27.3199 39.96C27.3199 36.57 30.1499 33.98 33.39 33.98C37.66 33.98 41.9399 33.98 46.2199 33.98ZM54.59 45.05V33.69C58.66 33.69 62.72 33.69 66.79 33.69C69.87 33.69 72.56 36.14 72.56 39.37C72.56 42.6 69.87 45.05 66.79 45.05C62.72 45.05 58.66 45.05 54.59 45.05ZM54.59 51.6C59.12 51.6 63.64 51.6 68.17 51.6C71.6 51.6 74.5899 54.33 74.5899 57.91C74.5899 61.49 71.6 64.22 68.17 64.22C63.64 64.22 59.12 64.22 54.59 64.22V51.6Z" fill="#FC5000"/>
</svg>
