<?xml version="1.0" encoding="UTF-8"?>
<!DOCTYPE svg PUBLIC "-//W3C//DTD SVG 1.1//EN" "http://www.w3.org/Graphics/SVG/1.1/DTD/svg11.dtd">
<!-- Creator: CorelDRAW 2020 (64-Bit) -->
<svg xmlns="http://www.w3.org/2000/svg" xml:space="preserve" width="750px" height="68px" version="1.1" style="shape-rendering:geometricPrecision; text-rendering:geometricPrecision; image-rendering:optimizeQuality; fill-rule:evenodd; clip-rule:evenodd"
viewBox="0 0 750 68"
 xmlns:xlink="http://www.w3.org/1999/xlink"
 xmlns:xodm="http://www.corel.com/coreldraw/odm/2003">
 <defs>
  <style type="text/css">
   <![CDATA[
    .fil0 {fill:#BBBBBA}
   ]]>
  </style>
 </defs>
 <g id="Слой_x0020_1">
  <metadata id="CorelCorpID_0Corel-Layer"/>
  <g id="_1384988679200">
   <path class="fil0" d="M478.13 49.31c22.05,0 13.78,0.69 13.8,-15.95 0,-3.82 -0.01,-6.27 1.32,-9.54 2.64,-6.43 -2.74,-5.6 -15.12,-5.6 -12.1,0 -5.38,4.06 -5.43,15.83 -0.01,3.39 0.06,7.14 -1.55,9.92 -2.15,3.72 -0.08,5.34 6.98,5.34z"/>
   <path class="fil0" d="M554.68 19.16c-2.46,-0.64 -16.15,-1 -19.39,-0.29 -2.92,0.63 -2.48,2.65 -1.7,4.34 2.38,5.2 2.48,15.69 0.69,20.18 -1.2,3.02 -4.99,7.27 17.18,5.52 6.77,-0.53 3.02,-5.43 2.86,-8.28 -0.21,-3.78 -0.44,-7.28 -0.18,-11.07 0.21,-2.98 2.17,-8.17 0.54,-10.4z"/>
   <path class="fil0" d="M430.12 28.31c-0.48,-2.42 2.85,-6.52 0.62,-8.91 -5.38,-1.02 -18.97,-1.23 -20.99,0.16 -0.84,1.57 1.43,10.85 1.43,13.8 0.01,4.97 -2.14,12.36 -1.38,14.53 3.92,1.23 18.74,1.67 20.65,-0.38 0.33,-0.36 -1.7,-12.19 -1.49,-16.57 0.01,-0.25 0.1,-1.17 0.19,-1.38l0.66 -0.95c0.07,-0.08 0.18,-0.2 0.31,-0.3z"/>
   <path class="fil0" d="M457.96 54.41c-1.52,-1.92 -0.52,-4.65 -4.95,-5.08 -5.09,-0.49 -7.82,1.22 -7.86,3.49 -0.3,4.24 -3.97,9.67 -3.25,11.14 0.54,1.12 2.17,1.38 3.26,2.34 3.42,-0.06 5.68,-0.25 9.18,-0.09 4.44,0.19 4.17,0.02 6.76,-1.15 0.62,-3.45 -2.98,-6.68 -3.14,-10.65z"/>
   <path class="fil0" d="M386.62 18.18c3.12,0.01 6.97,0.22 7.35,-1.43 0.1,-1.34 1.87,-6.55 2.56,-7.69 6.27,-10.44 -1.89,-7.15 -10.18,-7.67 -10.15,-0.63 -5.28,6.56 -3.85,11.1 1.24,3.93 2.23,3.93 4.12,5.69z"/>
   <path class="fil0" d="M456.94 15.77c-0.09,-2.09 2.1,-2.72 1.14,-4.36 1.42,-6.12 7.81,-10.48 -4.38,-9.86 -5.13,0.26 -13.76,-1.71 -11.07,4.81 0.97,2.36 3.19,9.93 5.15,10.91 4.17,2.07 8.37,-1.13 9.16,-1.5z"/>
   <path class="fil0" d="M520.35 55.84c-0.02,-1.14 -1.66,-4.71 -3.04,-5.4 -2.89,-1.45 -8.67,-0.83 -9.11,1.29 -0.27,4.13 -4.03,9.07 -3.91,12.49 2.52,1.25 2.64,1.95 7.01,1.75 3.3,-0.15 8.4,0.54 10.14,-0.11 3.79,-1.43 -1.28,-7.36 -1.09,-10.02z"/>
   <path class="fil0" d="M381 65.43c1.15,0.27 0.87,0.24 1.52,0.64 3.51,0.06 5.64,-0.31 9.15,-0.09 11.36,0.74 5.82,-3.23 3.85,-9.47 -0.75,-2.37 -1.25,-6.46 -6.34,-6.59 -3.56,-0.09 -4.25,0.71 -4.99,2.4 -1.75,4.01 -4.77,9.62 -3.19,13.11z"/>
   <line class="fil0" x1="523.5" y1="65.97" x2="523.5" y2= "65.97" />
   <path class="fil0" d="M519.83 11.81c-0.02,1.15 -1.66,4.72 -3.04,5.41 -2.89,1.45 -8.67,0.82 -9.11,-1.29 -0.27,-4.13 -4.03,-9.07 -3.91,-12.49 2.52,-1.25 2.64,-1.96 7,-1.75 3.31,0.15 8.41,-0.54 10.15,0.11 3.78,1.43 -1.28,7.35 -1.09,10.01z"/>
   <path class="fil0" d="M672.63 50.17c22.05,0 13.78,0.69 13.8,-15.95 0.01,-3.82 -0.01,-6.26 1.33,-9.53 2.63,-6.44 -2.75,-5.6 -15.13,-5.6 -12.1,0 -5.38,4.05 -5.43,15.82 -0.01,3.39 0.06,7.14 -1.55,9.92 -2.15,3.72 -0.07,5.34 6.98,5.34z"/>
   <path class="fil0" d="M749.18 20.03c-2.46,-0.65 -16.15,-1 -19.39,-0.3 -2.92,0.64 -2.48,2.65 -1.7,4.34 2.38,5.2 2.48,15.69 0.69,20.18 -1.2,3.02 -4.99,7.27 17.18,5.52 6.77,-0.53 3.02,-5.43 2.86,-8.28 -0.21,-3.77 -0.44,-7.28 -0.18,-11.07 0.21,-2.97 2.17,-8.17 0.54,-10.39z"/>
   <path class="fil0" d="M624.62 29.18c-0.48,-2.42 2.85,-6.52 0.62,-8.92 -5.38,-1.02 -18.97,-1.22 -20.99,0.16 -0.84,1.57 1.43,10.86 1.44,13.8 0,4.97 -2.15,12.36 -1.39,14.53 3.92,1.23 18.74,1.68 20.65,-0.38 0.33,-0.35 -1.7,-12.18 -1.49,-16.57 0.01,-0.25 0.1,-1.17 0.19,-1.38l0.66 -0.94c0.07,-0.09 0.18,-0.21 0.31,-0.3z"/>
   <path class="fil0" d="M652.47 55.27c-1.53,-1.92 -0.53,-4.65 -4.96,-5.08 -5.09,-0.49 -7.82,1.23 -7.86,3.49 -0.3,4.25 -3.97,9.67 -3.25,11.14 0.54,1.12 2.17,1.38 3.27,2.34 3.41,-0.06 5.67,-0.24 9.17,-0.09 4.44,0.19 4.18,0.02 6.76,-1.14 0.62,-3.45 -2.98,-6.69 -3.13,-10.66z"/>
   <path class="fil0" d="M581.12 19.04c3.13,0.02 6.97,0.22 7.35,-1.43 0.1,-1.33 1.87,-6.55 2.56,-7.69 6.27,-10.43 -1.89,-7.15 -10.18,-7.67 -10.15,-0.63 -5.28,6.56 -3.85,11.1 1.24,3.93 2.23,3.93 4.12,5.69z"/>
   <path class="fil0" d="M651.44 16.63c-0.09,-2.09 2.1,-2.72 1.14,-4.36 1.42,-6.12 7.81,-10.47 -4.38,-9.86 -5.13,0.26 -13.75,-1.71 -11.07,4.81 0.97,2.36 3.19,9.94 5.15,10.91 4.17,2.08 8.38,-1.13 9.16,-1.5z"/>
   <path class="fil0" d="M714.85 56.71c-0.02,-1.14 -1.66,-4.72 -3.04,-5.41 -2.89,-1.45 -8.67,-0.82 -9.11,1.3 -0.27,4.13 -4.03,9.06 -3.91,12.48 2.52,1.25 2.64,1.96 7.01,1.76 3.3,-0.16 8.4,0.54 10.14,-0.12 3.79,-1.43 -1.28,-7.35 -1.09,-10.01z"/>
   <path class="fil0" d="M575.5 66.3c1.15,0.26 0.88,0.23 1.52,0.63 3.51,0.06 5.64,-0.31 9.15,-0.08 11.36,0.73 5.82,-3.24 3.86,-9.47 -0.75,-2.38 -1.26,-6.47 -6.35,-6.6 -3.56,-0.09 -4.25,0.72 -4.99,2.4 -1.74,4.02 -4.77,9.62 -3.19,13.12z"/>
   <line class="fil0" x1="718.01" y1="66.83" x2="718.01" y2= "66.83" />
   <path class="fil0" d="M714.33 12.68c-0.02,1.14 -1.66,4.71 -3.04,5.41 -2.89,1.44 -8.67,0.82 -9.11,-1.3 -0.27,-4.13 -4.03,-9.07 -3.91,-12.49 2.52,-1.25 2.64,-1.95 7.01,-1.75 3.3,0.15 8.4,-0.54 10.14,0.12 3.79,1.42 -1.28,7.35 -1.09,10.01z"/>
   <path class="fil0" d="M98.05 49.44c22.06,0 13.78,0.69 13.81,-15.95 0,-3.82 -0.02,-6.27 1.32,-9.54 2.63,-6.43 -2.75,-5.6 -15.13,-5.6 -12.09,0 -5.37,4.06 -5.42,15.83 -0.02,3.39 0.06,7.14 -1.55,9.92 -2.16,3.72 -0.08,5.33 6.97,5.34z"/>
   <path class="fil0" d="M174.61 19.29c-2.46,-0.65 -16.16,-1 -19.39,-0.29 -2.93,0.63 -2.48,2.64 -1.7,4.34 2.38,5.19 2.47,15.69 0.69,20.18 -1.2,3.02 -5,7.27 17.17,5.52 6.78,-0.54 3.03,-5.44 2.87,-8.29 -0.21,-3.77 -0.44,-7.28 -0.18,-11.06 0.2,-2.98 2.17,-8.17 0.54,-10.4z"/>
   <path class="fil0" d="M50.04 28.44c-0.47,-2.42 2.86,-6.52 0.62,-8.91 -5.37,-1.02 -18.97,-1.23 -20.98,0.16 -0.84,1.57 1.43,10.85 1.43,13.8 0.01,4.97 -2.15,12.35 -1.39,14.53 3.92,1.23 18.74,1.67 20.66,-0.38 0.33,-0.36 -1.71,-12.19 -1.5,-16.57 0.02,-0.26 0.1,-1.18 0.19,-1.38l0.67 -0.95c0.07,-0.09 0.18,-0.2 0.3,-0.3z"/>
   <path class="fil0" d="M77.89 54.54c-1.53,-1.92 -0.52,-4.65 -4.96,-5.08 -5.08,-0.49 -7.82,1.22 -7.85,3.49 -0.3,4.24 -3.97,9.66 -3.26,11.14 0.54,1.12 2.17,1.37 3.27,2.33 3.42,-0.05 5.67,-0.24 9.17,-0.09 4.45,0.2 4.18,0.03 6.77,-1.14 0.62,-3.45 -2.98,-6.68 -3.14,-10.65z"/>
   <path class="fil0" d="M6.55 18.31c3.12,0.01 6.96,0.22 7.34,-1.43 0.11,-1.34 1.88,-6.55 2.56,-7.69 6.28,-10.44 -1.88,-7.15 -10.17,-7.67 -10.16,-0.64 -5.28,6.56 -3.85,11.1 1.24,3.93 2.23,3.92 4.12,5.69z"/>
   <path class="fil0" d="M76.87 15.9c-0.09,-2.09 2.1,-2.72 1.14,-4.36 1.41,-6.13 7.81,-10.48 -4.39,-9.86 -5.13,0.26 -13.75,-1.71 -11.07,4.81 0.98,2.36 3.19,9.93 5.16,10.91 4.16,2.07 8.37,-1.13 9.16,-1.5z"/>
   <path class="fil0" d="M140.28 55.97c-0.02,-1.14 -1.66,-4.71 -3.04,-5.4 -2.89,-1.45 -8.67,-0.83 -9.11,1.29 -0.27,4.13 -4.03,9.07 -3.91,12.49 2.52,1.25 2.63,1.95 7,1.75 3.31,-0.15 8.4,0.54 10.15,-0.12 3.78,-1.42 -1.28,-7.35 -1.09,-10.01z"/>
   <path class="fil0" d="M0.93 65.56c1.14,0.27 0.87,0.24 1.51,0.64 3.52,0.06 5.64,-0.32 9.16,-0.09 11.35,0.74 5.82,-3.23 3.85,-9.47 -0.75,-2.37 -1.25,-6.46 -6.35,-6.59 -3.55,-0.09 -4.25,0.71 -4.98,2.4 -1.75,4.01 -4.77,9.61 -3.19,13.11z"/>
   <line class="fil0" x1="143.43" y1="66.1" x2="143.43" y2= "66.1" />
   <path class="fil0" d="M139.76 11.94c-0.02,1.14 -1.66,4.71 -3.05,5.41 -2.88,1.45 -8.67,0.82 -9.11,-1.3 -0.26,-4.13 -4.02,-9.06 -3.9,-12.48 2.52,-1.25 2.63,-1.96 7,-1.76 3.31,0.16 8.4,-0.54 10.15,0.12 3.78,1.43 -1.29,7.35 -1.09,10.01z"/>
   <path class="fil0" d="M292.56 50.3c22.05,0 13.77,0.69 13.8,-15.95 0,-3.82 -0.01,-6.26 1.32,-9.53 2.63,-6.44 -2.75,-5.6 -15.12,-5.6 -12.1,0 -5.38,4.05 -5.43,15.82 -0.01,3.39 0.06,7.14 -1.55,9.92 -2.15,3.72 -0.08,5.34 6.98,5.34z"/>
   <path class="fil0" d="M369.11 20.16c-2.46,-0.65 -16.16,-1 -19.39,-0.3 -2.92,0.64 -2.48,2.65 -1.7,4.34 2.38,5.2 2.48,15.69 0.69,20.18 -1.2,3.02 -5,7.27 17.18,5.52 6.77,-0.53 3.02,-5.43 2.86,-8.28 -0.21,-3.77 -0.44,-7.28 -0.18,-11.07 0.2,-2.97 2.17,-8.17 0.54,-10.39z"/>
   <path class="fil0" d="M244.54 29.31c-0.47,-2.42 2.86,-6.53 0.62,-8.92 -5.37,-1.02 -18.96,-1.22 -20.98,0.16 -0.84,1.57 1.43,10.85 1.43,13.8 0.01,4.97 -2.14,12.36 -1.38,14.53 3.92,1.23 18.74,1.68 20.65,-0.38 0.33,-0.36 -1.7,-12.18 -1.49,-16.57 0.01,-0.25 0.1,-1.17 0.18,-1.38l0.67 -0.94c0.07,-0.09 0.18,-0.21 0.3,-0.3z"/>
   <path class="fil0" d="M272.39 55.4c-1.53,-1.92 -0.52,-4.65 -4.96,-5.08 -5.08,-0.49 -7.81,1.23 -7.85,3.49 -0.3,4.25 -3.97,9.67 -3.26,11.14 0.54,1.12 2.17,1.38 3.27,2.34 3.42,-0.06 5.68,-0.24 9.18,-0.09 4.44,0.19 4.17,0.02 6.76,-1.14 0.62,-3.46 -2.98,-6.69 -3.14,-10.66z"/>
   <path class="fil0" d="M201.05 19.17c3.12,0.01 6.97,0.22 7.35,-1.43 0.1,-1.33 1.87,-6.55 2.55,-7.69 6.28,-10.44 -1.88,-7.15 -10.17,-7.67 -10.16,-0.63 -5.28,6.56 -3.85,11.1 1.24,3.93 2.23,3.93 4.12,5.69z"/>
   <path class="fil0" d="M271.37 16.76c-0.09,-2.09 2.1,-2.72 1.14,-4.36 1.41,-6.12 7.81,-10.48 -4.38,-9.86 -5.13,0.26 -13.76,-1.71 -11.07,4.81 0.97,2.36 3.18,9.93 5.15,10.91 4.16,2.08 8.37,-1.13 9.16,-1.5z"/>
   <path class="fil0" d="M334.78 56.84c-0.02,-1.15 -1.66,-4.72 -3.04,-5.41 -2.89,-1.45 -8.67,-0.83 -9.11,1.29 -0.27,4.13 -4.03,9.07 -3.91,12.49 2.52,1.25 2.64,1.96 7,1.75 3.31,-0.15 8.41,0.54 10.15,-0.11 3.78,-1.43 -1.28,-7.35 -1.09,-10.01z"/>
   <path class="fil0" d="M195.43 66.43c1.15,0.26 0.87,0.23 1.52,0.63 3.51,0.06 5.63,-0.31 9.15,-0.08 11.35,0.73 5.82,-3.24 3.85,-9.48 -0.75,-2.37 -1.25,-6.46 -6.35,-6.59 -3.55,-0.09 -4.25,0.71 -4.98,2.4 -1.75,4.01 -4.77,9.62 -3.19,13.12z"/>
   <line class="fil0" x1="337.93" y1="66.96" x2="337.93" y2= "66.96" />
   <path class="fil0" d="M334.26 12.81c-0.02,1.14 -1.66,4.71 -3.04,5.4 -2.89,1.45 -8.67,0.83 -9.11,-1.29 -0.27,-4.13 -4.03,-9.07 -3.91,-12.49 2.52,-1.25 2.63,-1.95 7,-1.75 3.31,0.15 8.4,-0.54 10.15,0.11 3.78,1.43 -1.28,7.35 -1.09,10.02z"/>
  </g>
 </g>
</svg>
