<?xml version="1.0" encoding="UTF-8"?>
<!DOCTYPE svg PUBLIC "-//W3C//DTD SVG 1.1//EN" "http://www.w3.org/Graphics/SVG/1.1/DTD/svg11.dtd">
<!-- Creator: CorelDRAW 2020 (64-Bit) -->
<svg xmlns="http://www.w3.org/2000/svg" xml:space="preserve" width="1210px" height="200px" version="1.1" style="shape-rendering:geometricPrecision; text-rendering:geometricPrecision; image-rendering:optimizeQuality; fill-rule:evenodd; clip-rule:evenodd"
viewBox="0 0 1210 200"
 xmlns:xlink="http://www.w3.org/1999/xlink"
 xmlns:xodm="http://www.corel.com/coreldraw/odm/2003">
 <defs>
  <style type="text/css">
   <![CDATA[
    .fil1 {fill:#BBBBBA}
    .fil0 {fill:#292929}
   ]]>
  </style>
 </defs>
 <g id="Слой_x0020_1">
  <metadata id="CorelCorpID_0Corel-Layer"/>
  <g id="_1384872659312">
   <path class="fil0" d="M767.59 144.95c35.2,0.01 21.99,2.01 22.03,-46.21 0.01,-11.08 -0.02,-18.17 2.11,-27.65 4.2,-18.65 -4.38,-16.23 -24.14,-16.23 -19.3,0 -8.58,11.76 -8.66,45.88 -0.02,9.82 0.1,20.68 -2.47,28.74 -3.44,10.78 -0.12,15.47 11.13,15.47z"/>
   <path class="fil0" d="M889.77 57.59c-3.93,-1.88 -25.78,-2.9 -30.94,-0.86 -4.67,1.84 -3.96,7.68 -2.72,12.59 3.8,15.06 3.95,45.47 1.1,58.48 -1.91,8.75 -7.97,21.08 27.41,16 10.82,-1.55 4.83,-15.75 4.57,-24.01 -0.33,-10.93 -0.7,-21.1 -0.28,-32.07 0.33,-8.62 3.46,-23.67 0.86,-30.13z"/>
   <path class="fil0" d="M690.97 84.11c-0.76,-7.01 4.55,-18.9 0.99,-25.83 -8.58,-2.97 -30.28,-3.56 -33.49,0.46 -1.34,4.54 2.28,31.45 2.29,40 0.01,14.39 -3.43,35.8 -2.22,42.11 6.26,3.56 29.91,4.85 32.97,-1.11 0.52,-1.04 -2.73,-35.32 -2.39,-48.03 0.02,-0.73 0.16,-3.39 0.3,-4l1.06 -2.73c0.12,-0.26 0.29,-0.6 0.49,-0.87z"/>
   <path class="fil0" d="M735.41 159.74c-2.44,-5.57 -0.83,-13.48 -7.91,-14.72 -8.11,-1.43 -12.48,3.54 -12.54,10.1 -0.48,12.31 -6.33,28.03 -5.19,32.3 0.86,3.23 3.46,3.98 5.21,6.77 5.46,-0.17 9.06,-0.7 14.65,-0.26 7.09,0.55 6.66,0.06 10.79,-3.31 0.99,-10.01 -4.76,-19.37 -5.01,-30.88z"/>
   <path class="fil0" d="M621.55 54.73c4.99,0.04 11.12,0.64 11.73,-4.14 0.16,-3.87 2.99,-18.98 4.08,-22.29 10.01,-30.25 -3.01,-20.72 -16.24,-22.22 -16.21,-1.84 -8.43,19 -6.14,32.16 1.98,11.4 3.56,11.39 6.57,16.49z"/>
   <path class="fil0" d="M733.78 47.75c-0.15,-6.06 3.35,-7.89 1.82,-12.63 2.26,-17.75 12.46,-30.37 -7,-28.58 -8.18,0.75 -21.95,-4.96 -17.66,13.93 1.55,6.85 5.08,28.8 8.22,31.63 6.65,6.01 13.37,-3.28 14.62,-4.35z"/>
   <path class="fil0" d="M834.98 163.9c-0.03,-3.31 -2.64,-13.66 -4.85,-15.68 -4.61,-4.19 -13.84,-2.38 -14.54,3.76 -0.43,11.97 -6.43,26.28 -6.24,36.19 4.02,3.62 4.21,5.67 11.18,5.08 5.27,-0.44 13.41,1.57 16.19,-0.34 6.04,-4.13 -2.05,-21.3 -1.74,-29.01z"/>
   <path class="fil0" d="M612.58 191.69c1.83,0.77 1.39,0.69 2.42,1.84 5.61,0.18 9,-0.91 14.61,-0.25 18.12,2.14 9.29,-9.36 6.15,-27.45 -1.2,-6.88 -2,-18.72 -10.13,-19.11 -5.67,-0.26 -6.78,2.07 -7.95,6.95 -2.79,11.64 -7.62,27.88 -5.1,38.02z"/>
   <line class="fil1" x1="840.01" y1="193.23" x2="840.01" y2= "193.23" />
   <path class="fil0" d="M834.15 36.29c-0.03,3.31 -2.65,13.66 -4.86,15.67 -4.6,4.2 -13.83,2.39 -14.54,-3.75 -0.42,-11.97 -6.42,-26.29 -6.23,-36.19 4.02,-3.62 4.2,-5.67 11.18,-5.09 5.27,0.45 13.4,-1.56 16.19,0.34 6.04,4.13 -2.05,21.31 -1.74,29.02z"/>
   <path class="fil0" d="M1078.01 147.45c35.2,0.01 21.99,2.02 22.03,-46.21 0.01,-11.08 -0.02,-18.17 2.11,-27.65 4.2,-18.64 -4.38,-16.22 -24.14,-16.22 -19.3,0 -8.58,11.75 -8.66,45.87 -0.02,9.82 0.1,20.69 -2.47,28.74 -3.44,10.78 -0.12,15.47 11.13,15.47z"/>
   <path class="fil0" d="M1200.19 60.09c-3.93,-1.87 -25.78,-2.9 -30.95,-0.86 -4.66,1.85 -3.95,7.68 -2.71,12.59 3.8,15.06 3.95,45.47 1.1,58.48 -1.92,8.76 -7.97,21.08 27.41,16 10.81,-1.55 4.83,-15.75 4.57,-24.01 -0.33,-10.93 -0.7,-21.1 -0.28,-32.07 0.32,-8.62 3.46,-23.67 0.86,-30.13z"/>
   <path class="fil0" d="M1001.39 86.62c-0.76,-7.02 4.55,-18.91 0.99,-25.84 -8.58,-2.97 -30.28,-3.56 -33.5,0.46 -1.34,4.54 2.29,31.45 2.29,40 0.02,14.4 -3.42,35.81 -2.21,42.11 6.26,3.56 29.91,4.85 32.96,-1.11 0.53,-1.03 -2.72,-35.31 -2.38,-48.03 0.02,-0.73 0.16,-3.39 0.3,-3.99l1.06 -2.74c0.11,-0.25 0.29,-0.6 0.49,-0.86z"/>
   <path class="fil0" d="M1045.83 162.24c-2.44,-5.57 -0.83,-13.48 -7.91,-14.72 -8.11,-1.42 -12.48,3.55 -12.54,10.1 -0.48,12.31 -6.33,28.03 -5.19,32.3 0.86,3.24 3.46,3.99 5.21,6.77 5.46,-0.16 9.06,-0.7 14.64,-0.26 7.1,0.55 6.67,0.06 10.8,-3.31 0.98,-10 -4.76,-19.37 -5.01,-30.88z"/>
   <path class="fil0" d="M931.97 57.23c4.99,0.05 11.12,0.64 11.72,-4.14 0.17,-3.87 3,-18.98 4.09,-22.28 10.01,-30.25 -3.01,-20.73 -16.24,-22.23 -16.21,-1.84 -8.43,19.01 -6.14,32.16 1.98,11.4 3.56,11.39 6.57,16.49z"/>
   <path class="fil0" d="M1044.2 50.25c-0.15,-6.06 3.35,-7.89 1.82,-12.63 2.26,-17.75 12.46,-30.37 -7,-28.58 -8.19,0.76 -21.95,-4.96 -17.66,13.93 1.55,6.85 5.08,28.8 8.22,31.63 6.65,6.01 13.36,-3.27 14.62,-4.35z"/>
   <path class="fil0" d="M1145.4 166.4c-0.03,-3.31 -2.65,-13.66 -4.86,-15.67 -4.6,-4.2 -13.83,-2.39 -14.53,3.75 -0.43,11.97 -6.43,26.29 -6.24,36.19 4.02,3.62 4.2,5.67 11.18,5.08 5.27,-0.44 13.41,1.57 16.19,-0.34 6.04,-4.12 -2.05,-21.3 -1.74,-29.01z"/>
   <path class="fil0" d="M923 194.19c1.83,0.77 1.39,0.69 2.42,1.84 5.61,0.18 9,-0.91 14.61,-0.25 18.12,2.14 9.29,-9.36 6.15,-27.44 -1.2,-6.88 -2,-18.73 -10.13,-19.11 -5.67,-0.27 -6.79,2.07 -7.96,6.95 -2.79,11.63 -7.61,27.87 -5.09,38.01z"/>
   <line class="fil1" x1="1150.43" y1="195.74" x2="1150.43" y2= "195.74" />
   <path class="fil0" d="M1144.57 38.79c-0.03,3.31 -2.65,13.66 -4.86,15.67 -4.6,4.2 -13.84,2.39 -14.54,-3.75 -0.42,-11.97 -6.42,-26.29 -6.23,-36.19 4.02,-3.62 4.2,-5.67 11.17,-5.08 5.28,0.44 13.41,-1.57 16.2,0.33 6.04,4.13 -2.05,21.31 -1.74,29.02z"/>
   <path class="fil0" d="M161.01 145.33c35.2,0 21.99,2.01 22.03,-46.22 0,-11.08 -0.02,-18.17 2.11,-27.64 4.2,-18.65 -4.39,-16.23 -24.14,-16.23 -19.31,0 -8.59,11.75 -8.66,45.87 -0.03,9.82 0.09,20.69 -2.48,28.74 -3.43,10.78 -0.12,15.47 11.14,15.48z"/>
   <path class="fil0" d="M283.18 57.96c-3.92,-1.87 -25.78,-2.9 -30.94,-0.86 -4.67,1.85 -3.96,7.68 -2.72,12.59 3.81,15.06 3.96,45.47 1.11,58.48 -1.92,8.76 -7.97,21.08 27.41,16 10.81,-1.55 4.82,-15.75 4.57,-24.01 -0.34,-10.93 -0.71,-21.09 -0.29,-32.07 0.33,-8.62 3.46,-23.67 0.86,-30.13z"/>
   <path class="fil0" d="M84.38 84.49c-0.75,-7.02 4.56,-18.91 0.99,-25.84 -8.57,-2.97 -30.27,-3.56 -33.49,0.46 -1.34,4.54 2.28,31.45 2.29,40 0.01,14.4 -3.43,35.81 -2.21,42.11 6.25,3.56 29.9,4.85 32.96,-1.11 0.53,-1.03 -2.72,-35.31 -2.39,-48.03 0.02,-0.73 0.16,-3.39 0.31,-3.99l1.06 -2.74c0.11,-0.25 0.29,-0.6 0.48,-0.86z"/>
   <path class="fil0" d="M128.83 160.11c-2.44,-5.57 -0.84,-13.48 -7.91,-14.72 -8.12,-1.42 -12.48,3.55 -12.54,10.1 -0.48,12.32 -6.34,28.03 -5.2,32.3 0.86,3.24 3.47,3.99 5.22,6.77 5.45,-0.16 9.05,-0.7 14.64,-0.26 7.09,0.55 6.67,0.06 10.79,-3.31 0.99,-10 -4.75,-19.37 -5,-30.88z"/>
   <path class="fil0" d="M14.97 55.1c4.98,0.05 11.11,0.64 11.72,-4.14 0.16,-3.87 2.99,-18.98 4.09,-22.28 10.01,-30.25 -3.01,-20.73 -16.25,-22.23 -16.2,-1.84 -8.42,19.01 -6.14,32.16 1.98,11.4 3.56,11.39 6.58,16.49z"/>
   <path class="fil0" d="M127.19 48.12c-0.14,-6.06 3.35,-7.89 1.82,-12.63 2.26,-17.75 12.46,-30.37 -6.99,-28.58 -8.19,0.76 -21.95,-4.96 -17.67,13.93 1.55,6.85 5.09,28.8 8.23,31.63 6.64,6.01 13.36,-3.27 14.61,-4.35z"/>
   <path class="fil0" d="M228.4 164.27c-0.03,-3.31 -2.65,-13.66 -4.86,-15.67 -4.61,-4.2 -13.84,-2.39 -14.54,3.75 -0.43,11.97 -6.43,26.29 -6.24,36.19 4.03,3.62 4.21,5.67 11.18,5.08 5.28,-0.44 13.41,1.57 16.2,-0.33 6.04,-4.13 -2.05,-21.31 -1.74,-29.02z"/>
   <path class="fil0" d="M6 192.06c1.82,0.77 1.39,0.69 2.42,1.84 5.6,0.18 9,-0.91 14.61,-0.25 18.12,2.14 9.29,-9.36 6.14,-27.44 -1.19,-6.88 -1.99,-18.73 -10.12,-19.11 -5.68,-0.27 -6.79,2.07 -7.96,6.95 -2.79,11.64 -7.62,27.87 -5.09,38.01z"/>
   <line class="fil1" x1="233.43" y1="193.61" x2="233.43" y2= "193.61" />
   <path class="fil0" d="M227.56 36.66c-0.03,3.31 -2.64,13.66 -4.85,15.67 -4.61,4.2 -13.84,2.39 -14.54,-3.75 -0.43,-11.97 -6.43,-26.29 -6.24,-36.19 4.02,-3.62 4.21,-5.67 11.18,-5.08 5.28,0.44 13.41,-1.57 16.19,0.34 6.04,4.12 -2.04,21.3 -1.74,29.01z"/>
   <path class="fil0" d="M471.43 147.83c35.2,0.01 21.99,2.01 22.02,-46.22 0.01,-11.07 -0.01,-18.16 2.12,-27.64 4.2,-18.65 -4.39,-16.23 -24.14,-16.23 -19.31,0 -8.59,11.76 -8.66,45.87 -0.03,9.82 0.09,20.69 -2.48,28.74 -3.44,10.79 -0.12,15.47 11.14,15.48z"/>
   <path class="fil0" d="M593.6 60.47c-3.92,-1.88 -25.78,-2.9 -30.94,-0.86 -4.67,1.84 -3.96,7.67 -2.72,12.58 3.81,15.06 3.96,45.47 1.11,58.48 -1.92,8.76 -7.98,21.08 27.41,16.01 10.81,-1.55 4.82,-15.75 4.57,-24.01 -0.34,-10.94 -0.71,-21.1 -0.29,-32.08 0.33,-8.62 3.46,-23.67 0.86,-30.12z"/>
   <path class="fil0" d="M394.8 86.99c-0.76,-7.02 4.56,-18.91 0.99,-25.84 -8.58,-2.96 -30.27,-3.55 -33.49,0.46 -1.34,4.55 2.28,31.46 2.29,40 0.01,14.4 -3.43,35.81 -2.22,42.11 6.26,3.57 29.91,4.85 32.97,-1.11 0.53,-1.03 -2.72,-35.31 -2.39,-48.02 0.02,-0.73 0.16,-3.4 0.3,-4l1.07 -2.73c0.11,-0.26 0.29,-0.6 0.48,-0.87z"/>
   <path class="fil0" d="M439.25 162.62c-2.44,-5.57 -0.84,-13.48 -7.92,-14.73 -8.11,-1.42 -12.48,3.55 -12.53,10.11 -0.49,12.31 -6.34,28.02 -5.2,32.3 0.86,3.23 3.47,3.98 5.22,6.76 5.45,-0.16 9.05,-0.7 14.64,-0.26 7.09,0.56 6.67,0.06 10.79,-3.31 0.99,-10 -4.75,-19.36 -5,-30.87z"/>
   <path class="fil0" d="M325.39 57.61c4.98,0.04 11.11,0.63 11.72,-4.14 0.16,-3.88 2.99,-18.98 4.08,-22.29 10.02,-30.25 -3.01,-20.72 -16.24,-22.22 -16.2,-1.84 -8.42,19 -6.14,32.16 1.98,11.4 3.56,11.38 6.58,16.49z"/>
   <path class="fil0" d="M437.61 50.62c-0.14,-6.05 3.35,-7.88 1.82,-12.63 2.26,-17.75 12.46,-30.36 -6.99,-28.57 -8.19,0.75 -21.95,-4.97 -17.67,13.93 1.55,6.84 5.09,28.79 8.23,31.63 6.64,6 13.36,-3.28 14.61,-4.36z"/>
   <path class="fil0" d="M538.81 166.77c-0.03,-3.31 -2.64,-13.66 -4.85,-15.67 -4.61,-4.2 -13.84,-2.39 -14.54,3.75 -0.43,11.97 -6.43,26.29 -6.24,36.19 4.03,3.62 4.21,5.67 11.18,5.09 5.28,-0.45 13.41,1.56 16.19,-0.34 6.04,-4.13 -2.04,-21.31 -1.74,-29.02z"/>
   <path class="fil0" d="M316.42 194.57c1.82,0.76 1.39,0.68 2.42,1.84 5.6,0.18 8.99,-0.91 14.6,-0.25 18.13,2.13 9.29,-9.37 6.15,-27.45 -1.19,-6.88 -1.99,-18.73 -10.13,-19.11 -5.67,-0.27 -6.78,2.07 -7.95,6.95 -2.79,11.64 -7.62,27.88 -5.09,38.02z"/>
   <line class="fil1" x1="543.84" y1="196.11" x2="543.84" y2= "196.11" />
   <path class="fil0" d="M537.98 39.16c-0.03,3.31 -2.64,13.66 -4.85,15.68 -4.61,4.19 -13.84,2.38 -14.54,-3.76 -0.43,-11.97 -6.43,-26.28 -6.24,-36.19 4.02,-3.62 4.21,-5.67 11.18,-5.08 5.28,0.44 13.41,-1.57 16.19,0.34 6.04,4.13 -2.04,21.3 -1.74,29.01z"/>
  </g>
 </g>
</svg>
