<?xml version="1.0" encoding="UTF-8"?>
<!DOCTYPE svg PUBLIC "-//W3C//DTD SVG 1.1//EN" "http://www.w3.org/Graphics/SVG/1.1/DTD/svg11.dtd">
<!-- Creator: CorelDRAW 2020 (64-Bit) -->
<svg xmlns="http://www.w3.org/2000/svg" xml:space="preserve" width="540px" height="68px" version="1.1" style="shape-rendering:geometricPrecision; text-rendering:geometricPrecision; image-rendering:optimizeQuality; fill-rule:evenodd; clip-rule:evenodd"
viewBox="0 0 540 68"
 xmlns:xlink="http://www.w3.org/1999/xlink"
 xmlns:xodm="http://www.corel.com/coreldraw/odm/2003">
 <defs>
  <style type="text/css">
   <![CDATA[
    .fil0 {fill:#BBBBBA}
   ]]>
  </style>
 </defs>
 <g id="Слой_x0020_1">
  <metadata id="CorelCorpID_0Corel-Layer"/>
  <path class="fil0" d="M343.7 49.31c15.76,0 9.85,0.69 9.87,-15.95 0,-3.82 -0.01,-6.27 0.94,-9.54 1.88,-6.43 -1.96,-5.6 -10.81,-5.6 -8.64,0 -3.84,4.06 -3.88,15.83 -0.01,3.39 0.05,7.14 -1.1,9.92 -1.54,3.72 -0.06,5.34 4.98,5.34z"/>
  <path class="fil0" d="M398.41 19.16c-1.76,-0.64 -11.54,-1 -13.85,-0.29 -2.09,0.63 -1.78,2.65 -1.22,4.34 1.7,5.2 1.77,15.69 0.49,20.18 -0.85,3.02 -3.57,7.27 12.28,5.52 4.84,-0.53 2.16,-5.43 2.04,-8.28 -0.15,-3.78 -0.31,-7.28 -0.12,-11.07 0.14,-2.98 1.55,-8.17 0.38,-10.4z"/>
  <path class="fil0" d="M309.39 28.31c-0.34,-2.42 2.04,-6.52 0.44,-8.91 -3.84,-1.02 -13.55,-1.23 -14.99,0.16 -0.6,1.57 1.02,10.85 1.02,13.8 0.01,4.97 -1.54,12.36 -0.99,14.53 2.8,1.23 13.39,1.67 14.76,-0.38 0.24,-0.36 -1.22,-12.19 -1.07,-16.57 0.01,-0.25 0.07,-1.17 0.14,-1.38l0.47 -0.95c0.05,-0.08 0.13,-0.2 0.22,-0.3z"/>
  <path class="fil0" d="M329.29 54.41c-1.09,-1.92 -0.37,-4.65 -3.54,-5.08 -3.63,-0.49 -5.59,1.22 -5.62,3.49 -0.21,4.24 -2.83,9.67 -2.32,11.14 0.38,1.12 1.55,1.38 2.33,2.34 2.45,-0.06 4.06,-0.25 6.56,-0.09 3.18,0.19 2.99,0.02 4.83,-1.15 0.45,-3.45 -2.13,-6.68 -2.24,-10.65z"/>
  <path class="fil0" d="M278.31 18.18c2.23,0.01 4.97,0.22 5.25,-1.43 0.07,-1.34 1.33,-6.55 1.82,-7.69 4.49,-10.44 -1.34,-7.15 -7.27,-7.67 -7.26,-0.63 -3.77,6.56 -2.75,11.1 0.89,3.93 1.59,3.93 2.95,5.69z"/>
  <path class="fil0" d="M328.56 15.77c-0.06,-2.09 1.5,-2.72 0.81,-4.36 1.02,-6.12 5.59,-10.48 -3.13,-9.86 -3.66,0.26 -9.83,-1.71 -7.91,4.81 0.7,2.36 2.28,9.93 3.68,10.91 2.98,2.07 5.99,-1.13 6.55,-1.5z"/>
  <path class="fil0" d="M373.88 55.84c-0.02,-1.14 -1.19,-4.71 -2.18,-5.4 -2.06,-1.45 -6.19,-0.83 -6.51,1.29 -0.19,4.13 -2.87,9.07 -2.79,12.49 1.8,1.25 1.88,1.95 5.01,1.75 2.36,-0.15 6,0.54 7.25,-0.11 2.7,-1.43 -0.92,-7.36 -0.78,-10.02z"/>
  <path class="fil0" d="M274.29 65.43c0.82,0.27 0.62,0.24 1.08,0.64 2.51,0.06 4.03,-0.31 6.54,-0.09 8.12,0.74 4.16,-3.23 2.76,-9.47 -0.54,-2.37 -0.9,-6.46 -4.54,-6.59 -2.54,-0.09 -3.04,0.71 -3.56,2.4 -1.25,4.01 -3.41,9.62 -2.28,13.11z"/>
  <line class="fil0" x1="376.13" y1="65.97" x2="376.13" y2= "65.97" />
  <path class="fil0" d="M373.51 11.81c-0.02,1.15 -1.19,4.72 -2.18,5.41 -2.06,1.45 -6.2,0.82 -6.51,-1.29 -0.19,-4.13 -2.88,-9.07 -2.79,-12.49 1.8,-1.25 1.88,-1.96 5,-1.75 2.37,0.15 6.01,-0.54 7.25,0.11 2.71,1.43 -0.91,7.35 -0.77,10.01z"/>
  <path class="fil0" d="M482.71 50.17c15.76,0 9.84,0.69 9.86,-15.95 0,-3.82 -0.01,-6.26 0.95,-9.53 1.88,-6.44 -1.97,-5.6 -10.81,-5.6 -8.65,0 -3.85,4.05 -3.88,15.82 -0.01,3.39 0.04,7.14 -1.11,9.92 -1.54,3.72 -0.05,5.34 4.99,5.34z"/>
  <path class="fil0" d="M537.41 20.03c-1.75,-0.65 -11.54,-1 -13.85,-0.3 -2.09,0.64 -1.77,2.65 -1.22,4.34 1.71,5.2 1.77,15.69 0.5,20.18 -0.86,3.02 -3.57,7.27 12.27,5.52 4.84,-0.53 2.16,-5.43 2.05,-8.28 -0.15,-3.77 -0.32,-7.28 -0.13,-11.07 0.15,-2.97 1.55,-8.17 0.38,-10.39z"/>
  <path class="fil0" d="M448.39 29.18c-0.34,-2.42 2.04,-6.52 0.45,-8.92 -3.84,-1.02 -13.56,-1.22 -15,0.16 -0.6,1.57 1.02,10.86 1.02,13.8 0.01,4.97 -1.53,12.36 -0.99,14.53 2.8,1.23 13.4,1.68 14.76,-0.38 0.24,-0.35 -1.21,-12.18 -1.06,-16.57 0,-0.25 0.07,-1.17 0.13,-1.38l0.48 -0.94c0.05,-0.09 0.13,-0.21 0.21,-0.3z"/>
  <path class="fil0" d="M468.3 55.27c-1.1,-1.92 -0.38,-4.65 -3.55,-5.08 -3.63,-0.49 -5.58,1.23 -5.61,3.49 -0.22,4.25 -2.84,9.67 -2.33,11.14 0.39,1.12 1.55,1.38 2.34,2.34 2.44,-0.06 4.05,-0.24 6.55,-0.09 3.18,0.19 2.99,0.02 4.84,-1.14 0.44,-3.45 -2.13,-6.69 -2.24,-10.66z"/>
  <path class="fil0" d="M417.31 19.04c2.23,0.02 4.98,0.22 5.25,-1.43 0.07,-1.33 1.34,-6.55 1.83,-7.69 4.48,-10.43 -1.35,-7.15 -7.27,-7.67 -7.26,-0.63 -3.78,6.56 -2.75,11.1 0.88,3.93 1.59,3.93 2.94,5.69z"/>
  <path class="fil0" d="M467.56 16.63c-0.06,-2.09 1.51,-2.72 0.82,-4.36 1.01,-6.12 5.58,-10.47 -3.13,-9.86 -3.67,0.26 -9.83,-1.71 -7.91,4.81 0.69,2.36 2.27,9.94 3.68,10.91 2.97,2.08 5.98,-1.13 6.54,-1.5z"/>
  <path class="fil0" d="M512.88 56.71c-0.01,-1.14 -1.18,-4.72 -2.17,-5.41 -2.06,-1.45 -6.2,-0.82 -6.51,1.3 -0.19,4.13 -2.88,9.06 -2.8,12.48 1.8,1.25 1.89,1.96 5.01,1.76 2.36,-0.16 6,0.54 7.25,-0.12 2.71,-1.43 -0.92,-7.35 -0.78,-10.01z"/>
  <path class="fil0" d="M413.29 66.3c0.82,0.26 0.63,0.23 1.09,0.63 2.51,0.06 4.03,-0.31 6.54,-0.08 8.11,0.73 4.16,-3.24 2.75,-9.47 -0.53,-2.38 -0.89,-6.47 -4.53,-6.6 -2.54,-0.09 -3.04,0.72 -3.57,2.4 -1.25,4.02 -3.41,9.62 -2.28,13.12z"/>
  <line class="fil0" x1="515.13" y1="66.83" x2="515.13" y2= "66.83" />
  <path class="fil0" d="M512.51 12.68c-0.01,1.14 -1.19,4.71 -2.17,5.41 -2.07,1.44 -6.2,0.82 -6.51,-1.3 -0.2,-4.13 -2.88,-9.07 -2.8,-12.49 1.8,-1.25 1.88,-1.95 5.01,-1.75 2.36,0.15 6,-0.54 7.25,0.12 2.7,1.42 -0.92,7.35 -0.78,10.01z"/>
  <path class="fil0" d="M72.07 49.44c15.77,0 9.85,0.69 9.87,-15.95 0,-3.82 -0.01,-6.27 0.95,-9.54 1.88,-6.43 -1.97,-5.6 -10.82,-5.6 -8.64,0 -3.84,4.06 -3.87,15.83 -0.01,3.39 0.04,7.14 -1.11,9.92 -1.54,3.72 -0.06,5.33 4.98,5.34z"/>
  <path class="fil0" d="M126.78 19.29c-1.75,-0.65 -11.54,-1 -13.85,-0.29 -2.09,0.63 -1.77,2.64 -1.22,4.34 1.71,5.19 1.77,15.69 0.5,20.18 -0.86,3.02 -3.57,7.27 12.27,5.52 4.84,-0.54 2.16,-5.44 2.05,-8.29 -0.15,-3.77 -0.32,-7.28 -0.13,-11.06 0.15,-2.98 1.55,-8.17 0.38,-10.4z"/>
  <path class="fil0" d="M37.76 28.44c-0.34,-2.42 2.04,-6.52 0.45,-8.91 -3.84,-1.02 -13.56,-1.23 -15,0.16 -0.6,1.57 1.02,10.85 1.02,13.8 0.01,4.97 -1.53,12.35 -0.99,14.53 2.8,1.23 13.39,1.67 14.76,-0.38 0.24,-0.36 -1.22,-12.19 -1.06,-16.57 0,-0.26 0.07,-1.17 0.13,-1.38l0.48 -0.95c0.05,-0.09 0.13,-0.2 0.21,-0.3z"/>
  <path class="fil0" d="M57.67 54.54c-1.1,-1.92 -0.38,-4.65 -3.55,-5.08 -3.63,-0.49 -5.59,1.22 -5.61,3.49 -0.22,4.24 -2.84,9.66 -2.33,11.14 0.39,1.12 1.55,1.37 2.34,2.33 2.44,-0.05 4.05,-0.24 6.55,-0.09 3.18,0.2 2.99,0.03 4.84,-1.14 0.44,-3.45 -2.13,-6.68 -2.24,-10.65z"/>
  <path class="fil0" d="M6.68 18.31c2.23,0.01 4.98,0.22 5.25,-1.43 0.07,-1.34 1.34,-6.55 1.83,-7.69 4.48,-10.44 -1.35,-7.15 -7.27,-7.67 -7.26,-0.64 -3.78,6.56 -2.76,11.1 0.89,3.93 1.6,3.92 2.95,5.69z"/>
  <path class="fil0" d="M56.93 15.9c-0.06,-2.09 1.5,-2.72 0.82,-4.36 1.01,-6.13 5.58,-10.48 -3.13,-9.86 -3.67,0.26 -9.83,-1.71 -7.92,4.81 0.7,2.36 2.28,9.93 3.69,10.91 2.97,2.07 5.98,-1.13 6.54,-1.5z"/>
  <path class="fil0" d="M102.25 55.97c-0.01,-1.14 -1.18,-4.71 -2.17,-5.4 -2.07,-1.45 -6.2,-0.83 -6.51,1.29 -0.19,4.13 -2.88,9.07 -2.8,12.49 1.81,1.25 1.89,1.95 5.01,1.75 2.36,-0.15 6,0.54 7.25,-0.12 2.71,-1.42 -0.91,-7.35 -0.78,-10.01z"/>
  <path class="fil0" d="M2.66 65.56c0.82,0.27 0.63,0.24 1.09,0.64 2.51,0.06 4.03,-0.32 6.54,-0.09 8.11,0.74 4.16,-3.23 2.75,-9.47 -0.53,-2.37 -0.89,-6.46 -4.53,-6.59 -2.55,-0.09 -3.04,0.71 -3.57,2.4 -1.25,4.01 -3.41,9.61 -2.28,13.11z"/>
  <line class="fil0" x1="104.5" y1="66.1" x2="104.5" y2= "66.1" />
  <path class="fil0" d="M101.88 11.94c-0.01,1.14 -1.19,4.71 -2.18,5.41 -2.06,1.45 -6.19,0.82 -6.51,-1.3 -0.19,-4.13 -2.87,-9.06 -2.79,-12.48 1.8,-1.25 1.88,-1.96 5.01,-1.76 2.36,0.16 6,-0.54 7.25,0.12 2.7,1.43 -0.92,7.35 -0.78,10.01z"/>
  <path class="fil0" d="M211.08 50.3c15.76,0 9.85,0.69 9.86,-15.95 0.01,-3.82 0,-6.26 0.95,-9.53 1.88,-6.44 -1.96,-5.6 -10.81,-5.6 -8.64,0 -3.84,4.05 -3.88,15.82 -0.01,3.39 0.04,7.14 -1.11,9.92 -1.54,3.72 -0.05,5.34 4.99,5.34z"/>
  <path class="fil0" d="M265.79 20.16c-1.76,-0.65 -11.54,-1 -13.86,-0.3 -2.09,0.64 -1.77,2.65 -1.21,4.34 1.7,5.2 1.77,15.69 0.49,20.18 -0.86,3.02 -3.57,7.27 12.28,5.52 4.84,-0.53 2.16,-5.43 2.04,-8.28 -0.15,-3.77 -0.31,-7.28 -0.13,-11.07 0.15,-2.97 1.55,-8.17 0.39,-10.39z"/>
  <path class="fil0" d="M176.77 29.31c-0.34,-2.42 2.04,-6.53 0.44,-8.92 -3.84,-1.02 -13.56,-1.22 -15,0.16 -0.6,1.57 1.02,10.85 1.03,13.8 0,4.97 -1.54,12.36 -0.99,14.53 2.8,1.23 13.39,1.68 14.76,-0.38 0.23,-0.36 -1.22,-12.18 -1.07,-16.57 0.01,-0.25 0.07,-1.17 0.13,-1.38l0.48 -0.94c0.05,-0.09 0.13,-0.21 0.22,-0.3z"/>
  <path class="fil0" d="M196.67 55.4c-1.09,-1.92 -0.37,-4.65 -3.54,-5.08 -3.64,-0.49 -5.59,1.23 -5.62,3.49 -0.21,4.25 -2.83,9.67 -2.32,11.14 0.38,1.12 1.55,1.38 2.33,2.34 2.44,-0.06 4.06,-0.24 6.56,-0.09 3.17,0.19 2.98,0.02 4.83,-1.14 0.44,-3.46 -2.13,-6.69 -2.24,-10.66z"/>
  <path class="fil0" d="M145.68 19.17c2.24,0.01 4.98,0.22 5.25,-1.43 0.08,-1.33 1.34,-6.55 1.83,-7.69 4.49,-10.44 -1.35,-7.15 -7.27,-7.67 -7.26,-0.63 -3.77,6.56 -2.75,11.1 0.89,3.93 1.59,3.93 2.94,5.69z"/>
  <path class="fil0" d="M195.94 16.76c-0.07,-2.09 1.5,-2.72 0.81,-4.36 1.01,-6.12 5.58,-10.48 -3.13,-9.86 -3.67,0.26 -9.83,-1.71 -7.91,4.81 0.69,2.36 2.28,9.93 3.68,10.91 2.98,2.08 5.99,-1.13 6.55,-1.5z"/>
  <path class="fil0" d="M241.26 56.84c-0.02,-1.15 -1.19,-4.72 -2.18,-5.41 -2.06,-1.45 -6.2,-0.83 -6.51,1.29 -0.19,4.13 -2.88,9.07 -2.79,12.49 1.8,1.25 1.88,1.96 5,1.75 2.37,-0.15 6.01,0.55 7.25,-0.11 2.71,-1.43 -0.91,-7.35 -0.77,-10.01z"/>
  <path class="fil0" d="M141.67 66.43c0.82,0.26 0.62,0.23 1.08,0.63 2.51,0.06 4.03,-0.31 6.54,-0.08 8.12,0.73 4.16,-3.24 2.76,-9.48 -0.54,-2.37 -0.9,-6.46 -4.54,-6.59 -2.54,-0.09 -3.04,0.72 -3.56,2.4 -1.25,4.02 -3.41,9.62 -2.28,13.12z"/>
  <line class="fil0" x1="243.51" y1="66.96" x2="243.51" y2= "66.96" />
  <path class="fil0" d="M240.88 12.81c-0.01,1.14 -1.18,4.71 -2.17,5.4 -2.06,1.45 -6.2,0.83 -6.51,-1.29 -0.19,-4.13 -2.88,-9.07 -2.79,-12.49 1.8,-1.25 1.88,-1.95 5,-1.75 2.36,0.15 6.01,-0.54 7.25,0.11 2.71,1.43 -0.91,7.35 -0.78,10.02z"/>
 </g>
</svg>
