<?xml version="1.0" encoding="UTF-8"?>
<!DOCTYPE svg PUBLIC "-//W3C//DTD SVG 1.1//EN" "http://www.w3.org/Graphics/SVG/1.1/DTD/svg11.dtd">
<!-- Creator: CorelDRAW 2020 (64-Bit) -->
<svg xmlns="http://www.w3.org/2000/svg" xml:space="preserve" width="1024px" height="1040px" version="1.1" style="shape-rendering:geometricPrecision; text-rendering:geometricPrecision; image-rendering:optimizeQuality; fill-rule:evenodd; clip-rule:evenodd"
viewBox="0 0 1024 1040"
 xmlns:xlink="http://www.w3.org/1999/xlink"
 xmlns:xodm="http://www.corel.com/coreldraw/odm/2003">
 <defs>
  <style type="text/css">
   <![CDATA[
    .fil0 {fill:#EB8157}
   ]]>
  </style>
 </defs>
 <g id="Слой_x0020_1">
  <metadata id="CorelCorpID_0Corel-Layer"/>
  <path class="fil0" d="M75.33 293.31c12.98,18.2 42.78,28.09 46.11,60.7 3.2,31.55 -21.33,54.36 -50.03,56.54 -15.7,1.22 -31.92,0.25 -46.92,4.41 -16.95,4.72 -22.37,21.9 -12.76,32.57 11.92,13.21 49.07,18.87 68.11,38.09 18.9,19.07 18.65,51.79 -4.53,73.05 -16.61,15.24 -40.4,13.63 -67.7,38.07 -0.18,29.96 11.53,30.31 53.16,32.19 72.3,3.23 69.89,65.69 43.21,91.15 -8.37,8.01 -39.22,30.36 -38.14,47.52 1.72,27.63 38.82,15.64 57.78,9.6 30.33,-9.6 46.88,-8.93 65.64,10.53 45.24,46.97 -35.75,97.43 -6.84,124.07 29.14,26.81 64.01,-57.26 117.1,-30.86 51.88,25.79 13.83,84.27 27.26,112.23 2.83,5.9 5.86,6.68 13.4,8.76 32.04,8.89 38.08,-74.16 94.43,-69.89 66.52,5.05 39.18,99.56 75.46,99.56l8.85 0c28.93,-6.62 7.63,-92.59 69.06,-99.38 57.66,-6.35 64.34,76.83 94.82,70.17 47.11,-10.31 -18.97,-89.11 40.74,-120.74 53.17,-28.17 88.26,54.86 117.4,31.19 30.93,-25.16 -49.18,-79.14 -7.04,-124.31 43.28,-46.41 116.02,27.79 124.49,-19.38 3.01,-16.88 -27.3,-39.89 -35.42,-47.03 -13.76,-12.11 -28.23,-35.73 -15.08,-63.08 19.26,-40.11 62.47,-25.32 92.18,-33.98 16.28,-4.73 16.97,-10.8 16.93,-28.32 -34.37,-30.22 -85.78,-25.86 -85.78,-76.74 0,-50.95 51.61,-46.59 85.75,-76.74 0.09,-29.92 -11.32,-30.31 -53.18,-32.2 -72.5,-3.23 -69.82,-66.08 -43.19,-91.12 8.61,-8.07 39.1,-30.39 38.08,-47.54 -0.68,-11.57 -10.49,-18.45 -23.76,-17.9 -32.79,1.4 -65.56,33.1 -99.6,-2.26 -45.26,-46.96 35.71,-97.36 6.81,-124.01 -28.95,-26.73 -64.04,56.96 -117.09,30.83 -42.72,-21.04 -24.47,-65.26 -24.23,-92.6 0.18,-19.94 -3.49,-24.78 -16.46,-28.41 -32.06,-8.96 -37.78,74.2 -94.4,69.9 -66.54,-5.04 -39.18,-99.52 -75.46,-99.55l-8.84 0c-22.35,10.82 -17.24,51.19 -30.52,73.91 -11.57,19.81 -42.91,36.86 -71.87,18.02 -20.44,-13.32 -28.61,-43.5 -46.62,-57.52 -9.78,-7.64 -26.54,-7.86 -30.97,7.22 -8.52,28.92 24.27,98.32 -35.97,112.62 -33.14,7.87 -53.91,-18.37 -72.76,-30.85 -34.6,-22.84 -49.51,1.59 -32.45,36.93 11.34,23.54 31.19,51.39 9.13,79 -39.63,49.55 -96.85,-9.6 -120.26,10.42 -13.37,11.46 -5.17,25.13 1.97,35.15l0 0.01 0 0zm147.96 255.21c-16.39,-168.16 110.83,-304.73 261.45,-317.71 168.2,-14.49 302.91,109.84 316.6,260.98 15.29,168.76 -110.04,303.56 -260.85,317.27 -168.58,15.33 -302.4,-108.89 -317.2,-260.54l0 0z"/>
 </g>
</svg>
