<?xml version="1.0" encoding="UTF-8"?>
<!DOCTYPE svg PUBLIC "-//W3C//DTD SVG 1.1//EN" "http://www.w3.org/Graphics/SVG/1.1/DTD/svg11.dtd">
<!-- Creator: CorelDRAW 2020 (64-Bit) -->
<svg xmlns="http://www.w3.org/2000/svg" xml:space="preserve" width="1000px" height="1015px" version="1.1" style="shape-rendering:geometricPrecision; text-rendering:geometricPrecision; image-rendering:optimizeQuality; fill-rule:evenodd; clip-rule:evenodd"
viewBox="0 0 1000 1015"
 xmlns:xlink="http://www.w3.org/1999/xlink"
 xmlns:xodm="http://www.corel.com/coreldraw/odm/2003">
 <defs>
  <style type="text/css">
   <![CDATA[
    .fil0 {fill:#FC5000}
   ]]>
  </style>
 </defs>
 <g id="Слой_x0020_1">
  <metadata id="CorelCorpID_0Corel-Layer"/>
 </g>
 <g id="Слой_x0020_1_0">
  <metadata id="CorelCorpID_1Corel-Layer"/>
  <path class="fil0" d="M67.15 283.55c12.85,18.02 42.36,27.82 45.66,60.1 3.16,31.24 -21.12,53.83 -49.54,55.98 -15.54,1.21 -31.6,0.25 -46.45,4.37 -16.79,4.67 -22.15,21.68 -12.64,32.25 11.8,13.08 48.59,18.68 67.44,37.71 18.71,18.88 18.46,51.28 -4.49,72.33 -16.44,15.09 -40,13.49 -67.03,37.69 -0.17,29.66 11.42,30.01 52.64,31.87 71.58,3.2 69.19,65.04 42.78,90.25 -8.29,7.93 -38.83,30.06 -37.76,47.05 1.7,27.35 38.43,15.48 57.21,9.5 30.02,-9.5 46.41,-8.84 64.99,10.43 44.79,46.5 -35.4,96.46 -6.78,122.84 28.85,26.55 63.38,-56.69 115.94,-30.55 51.37,25.53 13.7,83.43 26.99,111.12 2.8,5.84 5.8,6.61 13.27,8.67 31.72,8.8 37.7,-73.43 93.5,-69.2 65.86,5 38.79,98.57 74.71,98.57l8.76 0c28.64,-6.55 7.56,-91.67 68.38,-98.39 57.09,-6.29 63.7,76.07 93.88,69.47 46.64,-10.2 -18.78,-88.22 40.33,-119.54 52.65,-27.89 87.39,54.32 116.24,30.88 30.63,-24.91 -48.69,-78.36 -6.97,-123.08 42.85,-45.95 114.87,27.52 123.26,-19.19 2.98,-16.71 -27.03,-39.49 -35.07,-46.56 -13.62,-11.99 -27.95,-35.38 -14.93,-62.46 19.07,-39.71 61.85,-25.07 91.27,-33.64 16.12,-4.68 16.8,-10.69 16.76,-28.04 -34.03,-29.92 -84.93,-25.6 -84.93,-75.98 0,-50.44 51.1,-46.13 84.9,-75.98 0.09,-29.62 -11.21,-30.01 -52.65,-31.88 -71.79,-3.2 -69.13,-65.43 -42.77,-90.22 8.53,-7.99 38.72,-30.09 37.71,-47.07 -0.68,-11.45 -10.39,-18.26 -23.53,-17.72 -32.46,1.39 -64.91,32.77 -98.61,-2.24 -44.81,-46.49 35.35,-96.39 6.74,-122.78 -28.66,-26.47 -63.41,56.4 -115.93,30.52 -42.3,-20.83 -24.23,-64.61 -23.99,-91.68 0.18,-19.74 -3.46,-24.53 -16.3,-28.13 -31.74,-8.87 -37.4,73.47 -93.46,69.21 -65.88,-4.99 -38.79,-98.53 -74.72,-98.56l-8.75 0c-22.13,10.71 -17.07,50.68 -30.22,73.18 -11.45,19.61 -42.48,36.49 -71.16,17.84 -20.23,-13.19 -28.32,-43.07 -46.15,-56.95 -9.69,-7.57 -26.28,-7.79 -30.67,7.15 -8.43,28.63 24.03,97.34 -35.61,111.5 -32.81,7.79 -53.38,-18.19 -72.04,-30.55 -34.26,-22.61 -49.02,1.58 -32.13,36.57 11.23,23.31 30.88,50.88 9.04,78.22 -39.24,49.06 -95.89,-9.51 -119.07,10.32 -13.24,11.34 -5.12,24.88 1.95,34.8l0 0.01 0 0 0 -0.01zm146.5 252.69c-16.23,-166.5 109.73,-301.72 258.86,-314.57 166.53,-14.34 299.91,108.76 313.46,258.4 15.14,167.09 -108.95,300.55 -258.26,314.13 -166.91,15.18 -299.41,-107.81 -314.06,-257.96l0 0 0 0z"/>
 </g>
</svg>
