<?xml version="1.0" encoding="UTF-8"?>
<!DOCTYPE svg PUBLIC "-//W3C//DTD SVG 1.1//EN" "http://www.w3.org/Graphics/SVG/1.1/DTD/svg11.dtd">
<!-- Creator: CorelDRAW 2020 (64-Bit) -->
<svg xmlns="http://www.w3.org/2000/svg" xml:space="preserve" width="100px" height="100px" version="1.1" style="shape-rendering:geometricPrecision; text-rendering:geometricPrecision; image-rendering:optimizeQuality; fill-rule:evenodd; clip-rule:evenodd"
viewBox="0 0 100 100"
 xmlns:xlink="http://www.w3.org/1999/xlink"
 xmlns:xodm="http://www.corel.com/coreldraw/odm/2003">
 <defs>
  <style type="text/css">
   <![CDATA[
    .fil0 {fill:#FEFEFE}
   ]]>
  </style>
 </defs>
 <g id="Слой_x0020_1">
  <metadata id="CorelCorpID_0Corel-Layer"/>
  <g id="_2626881949952">
   <path class="fil0" d="M7.97 50c0,-23.22 18.82,-42.04 42.03,-42.04 23.22,0 42.04,18.82 42.04,42.04 0,23.21 -18.82,42.03 -42.04,42.03 -23.21,0 -42.03,-18.82 -42.03,-42.03zm41.93 -49.9c-27.61,0 -50,22.38 -50,50 0,27.61 22.39,50 50,50 27.62,0 50,-22.39 50,-50 0,-27.62 -22.38,-50 -50,-50z"/>
   <path class="fil0" d="M33.05 27.5c-15.09,-0.86 -17.76,17.42 -8.05,22.92 1.45,0.82 3,1.25 5.8,2.35 -2.39,1.57 -3.76,2.7 -5.56,5.03 -2.46,3.17 -4.52,6.67 -6.7,10.04 -1.01,1.56 -2.02,3.12 -3.01,4.69l10.64 0 10.22 -15.24c1.43,-2.12 2.96,-3.44 5.28,-3.73 0.38,-0.05 0.78,-0.07 1.21,-0.06l3.92 0.04 -0.02 18.84 25.12 0c9.26,0 14.98,-9.22 11.58,-17.54 -1.08,-2.64 -3.14,-4.47 -6.25,-5.73 -0.47,-0.19 -0.91,-0.35 -1.26,-0.45 0.41,-0.18 0.81,-0.39 1.19,-0.63 5.33,-3.34 6.58,-12.05 2.24,-16.61 -1.26,-1.33 -2.9,-2.38 -4.86,-3.1 -1.54,-0.58 -3.26,-0.82 -5.66,-0.82l-35.83 0zm14.01 7.28l0 12.2c-4.36,0 -8.73,0 -13.09,0 -3.31,0 -6.2,-2.64 -6.2,-6.1 0,-3.47 2.89,-6.1 6.2,-6.1 4.36,0 8.73,0 13.09,0zm8.55 11.29l0 -11.59c4.14,0 8.29,0 12.44,0 3.15,0 5.89,2.5 5.89,5.79 0,3.3 -2.74,5.8 -5.89,5.8 -4.15,0 -8.3,0 -12.44,0zm0 6.69c4.61,0 9.23,0 13.85,0 3.5,0 6.56,2.78 6.56,6.43 0,3.66 -3.06,6.44 -6.56,6.44 -4.62,0 -9.24,0 -13.85,0l0 -12.87z"/>
  </g>
 </g>
</svg>
