<svg width="24" height="24" viewBox="0 0 24 24" fill="none" xmlns="http://www.w3.org/2000/svg">
<g clip-path="url(#clip0_287_18)">
<path d="M10.117 18.993L10.059 18.998L9.94099 18.998L9.88299 18.993L9.82299 18.984L9.77099 18.974L9.66299 18.942L9.59599 18.915L9.46399 18.845L9.37399 18.78L9.29299 18.707L9.20999 18.613L9.15599 18.536L9.10199 18.44L9.08499 18.404L9.05799 18.337L9.02599 18.229L9.01599 18.176L9.00599 18.116L9.00199 18.059L8.99999 18L8.99999 6.00005C8.99999 5.14805 9.98599 4.70305 10.623 5.21705L10.707 5.29305L16.707 11.293C16.8792 11.4652 16.9826 11.6943 16.9979 11.9374C17.0132 12.1804 16.9392 12.4206 16.79 12.613L16.707 12.707L10.707 18.707L10.613 18.79L10.536 18.844L10.44 18.898L10.404 18.915L10.337 18.942L10.229 18.974L10.176 18.984L10.116 18.994L10.117 18.993Z" fill="black"/>
</g>
<defs>
<clipPath id="clip0_287_18">
<rect width="24" height="24" fill="white" transform="translate(24 24) rotate(-180)"/>
</clipPath>
</defs>
</svg>
