<svg width="103" height="94" viewBox="0 0 103 94" fill="none" xmlns="http://www.w3.org/2000/svg">
<path d="M87.3286 37.5971C84.8172 31.4809 80.8963 26.0975 75.91 21.9195C70.9238 17.7414 65.0248 14.8965 58.7308 13.6344L64.4165 4.20131L58.6501 0.464111L51.1477 12.9115C43.5058 12.9482 36.0416 15.3058 29.6775 19.6929C23.3134 24.08 18.3282 30.3044 15.3379 37.5971C11.3324 37.676 7.51664 39.3814 4.71086 42.3467C1.90508 45.3121 0.333252 49.3005 0.333252 53.4548C0.333252 57.6091 1.90508 61.5976 4.71086 64.5629C7.51664 67.5282 11.3324 69.2337 15.3379 69.3126C18.3409 76.6352 23.3548 82.8801 29.7551 87.2698C36.1555 91.6595 43.6596 94 51.3333 94C59.0069 94 66.511 91.6595 72.9114 87.2698C79.3117 82.8801 84.3256 76.6352 87.3286 69.3126C91.3341 69.2337 95.1499 67.5282 97.9557 64.5629C100.761 61.5976 102.333 57.6091 102.333 53.4548C102.333 49.3005 100.761 45.3121 97.9557 42.3467C95.1499 39.3814 91.3341 37.676 87.3286 37.5971ZM93.0984 59.6269C91.5432 61.2763 89.4236 62.2234 87.1994 62.2626L82.7954 62.3494L81.0713 66.5524C78.5908 72.6026 74.4487 77.7625 69.161 81.3895C63.8732 85.0165 57.6733 86.9504 51.3334 86.9504C44.9934 86.9504 38.7935 85.0165 33.5058 81.3895C28.218 77.7625 24.0759 72.6026 21.5954 66.5524L19.8711 62.3494L15.4671 62.2626C13.2419 62.2194 11.1219 61.2725 9.56301 59.6254C8.00409 57.9783 7.13073 55.7627 7.13073 53.4548C7.13073 51.147 8.00409 48.9313 9.56301 47.2843C11.1219 45.6372 13.2419 44.6902 15.4671 44.6471L19.8711 44.5602L21.5954 40.3572C24.076 34.3071 28.2181 29.1474 33.5059 25.5204C38.7936 21.8935 44.9935 19.9596 51.3334 19.9596C57.6732 19.9596 63.8731 21.8935 69.1609 25.5204C74.4486 29.1474 78.5907 34.3071 81.0713 40.3572L82.7954 44.5602L87.1994 44.6471C88.8591 44.6796 90.4732 45.2157 91.8423 46.189C93.2114 47.1624 94.2754 48.5304 94.903 50.1239C95.5305 51.7175 95.694 53.4668 95.3733 55.1557C95.0526 56.8446 94.2617 58.399 93.0984 59.6269Z" fill="white"/>
<path d="M32.6333 44.6406H41.1333V53.4548H32.6333V44.6406ZM61.5333 44.6406H70.0333V53.4548H61.5333V44.6406ZM51.3333 78.1344C53.5658 78.1344 55.7764 77.6785 57.8389 76.7925C59.9015 75.9066 61.7755 74.6081 63.3541 72.9712C64.9327 71.3343 66.1849 69.3909 67.0392 67.2522C67.8936 65.1134 68.3333 62.8211 68.3333 60.5061H34.3333C34.3333 62.8211 34.773 65.1134 35.6273 67.2522C36.4817 69.3909 37.7339 71.3343 39.3125 72.9712C42.5006 76.2772 46.8246 78.1344 51.3333 78.1344Z" fill="white"/>
</svg>
