<svg width="123" height="94" viewBox="0 0 123 94" fill="none" xmlns="http://www.w3.org/2000/svg">
<path d="M118.524 85.826H114.437V38.1457C114.437 36.8005 114.105 35.4761 113.47 34.2899C112.836 33.1038 111.918 32.0925 110.799 31.346L65.8419 1.37276C64.4992 0.477651 62.9216 0 61.3079 0C59.6942 0 58.1166 0.477651 56.7738 1.37276L11.8166 31.346C10.6966 32.092 9.77818 33.1029 9.14275 34.2891C8.50732 35.4753 8.17457 36.8001 8.17404 38.1457V85.826H4.08702C3.00308 85.826 1.96353 86.2565 1.19706 87.023C0.430596 87.7895 0 88.829 0 89.913C0 90.9969 0.430596 92.0365 1.19706 92.8029C1.96353 93.5694 3.00308 94 4.08702 94H118.524C119.608 94 120.647 93.5694 121.414 92.8029C122.18 92.0365 122.611 90.9969 122.611 89.913C122.611 88.829 122.18 87.7895 121.414 87.023C120.647 86.2565 119.608 85.826 118.524 85.826ZM16.3481 38.1457L61.3053 8.17254L106.263 38.1406V85.826H94.0015V57.2168C94.0015 56.1329 93.5709 55.0933 92.8044 54.3268C92.038 53.5604 90.9984 53.1298 89.9145 53.1298H32.6962C31.6122 53.1298 30.5727 53.5604 29.8062 54.3268C29.0397 55.0933 28.6092 56.1329 28.6092 57.2168V85.826H16.3481V38.1457ZM85.8275 61.3038V69.4779H65.3923V61.3038H85.8275ZM57.2183 69.4779H36.7832V61.3038H57.2183V69.4779ZM36.7832 77.6519H57.2183V85.826H36.7832V77.6519ZM65.3923 77.6519H85.8275V85.826H65.3923V77.6519Z" fill="white"/>
</svg>
