<svg width="101" height="93" viewBox="0 0 101 93" fill="none" xmlns="http://www.w3.org/2000/svg">
<path d="M28.5542 37.4828H25.3364C20.9453 37.3241 16.5683 38.0696 12.4773 39.6729C8.38621 41.2763 4.6683 43.7033 1.55429 46.8034L0.666626 47.839V78.4636H15.757V61.0801L17.7913 58.7869L18.7159 57.7143C23.5312 52.7674 29.5262 49.1272 36.1364 47.1362C32.8269 44.618 30.2167 41.2948 28.5542 37.4828Z" fill="white"/>
<path d="M100.086 46.692C96.9716 43.592 93.2537 41.1649 89.1627 39.5616C85.0716 37.9583 80.6947 37.2128 76.3035 37.3715C74.9567 37.3753 73.6111 37.4494 72.272 37.5934C70.5784 41.1696 68.0395 44.2797 64.8748 46.6551C71.9316 48.6074 78.3244 52.443 83.3679 57.7509L84.2925 58.7865L86.2898 61.0797V78.5002H100.862V47.7277L100.086 46.692Z" fill="white"/>
<path d="M25.2256 30.2704H26.3721C25.8394 25.6961 26.642 21.0653 28.6832 16.9372C30.7243 12.809 33.9166 9.35983 37.8749 7.00603C36.44 4.81404 34.4605 3.03225 32.1302 1.83515C29.7998 0.638056 27.1985 0.0666857 24.581 0.176991C21.9635 0.287296 19.4195 1.07549 17.1981 2.46441C14.9768 3.85332 13.1542 5.79533 11.9089 8.10026C10.6636 10.4052 10.0382 12.994 10.094 15.6133C10.1498 18.2325 10.8849 20.7924 12.2273 23.0422C13.5697 25.2919 15.4734 27.1545 17.7519 28.4475C20.0305 29.7405 22.6057 30.4196 25.2256 30.4183V30.2704Z" fill="white"/>
<path d="M74.5282 27.4963C74.5731 28.3464 74.5731 29.1983 74.5282 30.0483C75.238 30.1609 75.9548 30.2227 76.6734 30.2333H77.3761C79.9844 30.0942 82.5123 29.2821 84.7136 27.8761C86.9149 26.47 88.7146 24.518 89.9376 22.2099C91.1605 19.9019 91.765 17.3165 91.6921 14.7055C91.6193 12.0945 90.8716 9.5468 89.5219 7.31053C88.1722 5.07425 86.2664 3.22557 83.9901 1.94446C81.7138 0.663354 79.1446 -0.00652295 76.5326 4.7878e-05C73.9206 0.00661871 71.3548 0.689414 69.085 1.98196C66.8152 3.2745 64.9187 5.13275 63.5803 7.37579C66.9278 9.56143 69.6805 12.5439 71.5912 16.0556C73.502 19.5673 74.5112 23.4984 74.5282 27.4963Z" fill="white"/>
<path d="M50.2652 44.0662C59.396 44.0662 66.7981 36.6642 66.7981 27.5333C66.7981 18.4025 59.396 11.0005 50.2652 11.0005C41.1344 11.0005 33.7324 18.4025 33.7324 27.5333C33.7324 36.6642 41.1344 44.0662 50.2652 44.0662Z" fill="white"/>
<path d="M51.1529 52.8688C46.3227 52.6738 41.5029 53.458 36.9836 55.1742C32.4643 56.8904 28.3389 59.5031 24.8557 62.8551L23.931 63.8907V87.303C23.9455 88.0656 24.11 88.8179 24.4152 89.5169C24.7205 90.2159 25.1604 90.848 25.71 91.3769C26.2595 91.9058 26.9079 92.3213 27.618 92.5996C28.3282 92.8779 29.0862 93.0136 29.8488 92.9989H72.346C73.1086 93.0136 73.8666 92.8779 74.5768 92.5996C75.287 92.3213 75.9353 91.9058 76.4849 91.3769C77.0344 90.848 77.4744 90.2159 77.7796 89.5169C78.0848 88.8179 78.2494 88.0656 78.2638 87.303V63.9647L77.3761 62.8551C73.9154 59.4928 69.8044 56.8727 65.2952 55.1555C60.786 53.4383 55.9735 52.6602 51.1529 52.8688Z" fill="white"/>
</svg>
