<svg width="113" height="101" viewBox="0 0 113 101" fill="none" xmlns="http://www.w3.org/2000/svg">
<path d="M56.5 4C67.3573 4.00103 77.9473 7.3679 86.8118 13.637C95.6764 19.9061 102.379 28.7691 105.998 39.0057C109.617 49.2422 109.973 60.3488 107.018 70.7962C104.062 81.2436 97.941 90.5179 89.4965 97.3422H23.5035C15.059 90.5179 8.93762 81.2436 5.98238 70.7962C3.02715 60.3488 3.38336 49.2422 7.00198 39.0057C10.6206 28.7691 17.3237 19.9061 26.1882 13.637C35.0527 7.3679 45.6427 4.00103 56.5 4Z" stroke="white" stroke-width="7" stroke-linecap="round" stroke-linejoin="round"/>
<path d="M103.171 33.1694H51.8329C50.9453 33.1706 50.0695 33.3742 49.2724 33.765C48.4754 34.1557 47.778 34.7232 47.2334 35.4242C46.6888 36.1252 46.3113 36.9413 46.1298 37.8102C45.9482 38.6791 45.9674 39.578 46.1857 40.4385C49.1435 52.1062 55.4966 60.3787 65.2509 65.2558C76.9187 71.0897 90.5291 74.0066 106.088 74.0066" stroke="white" stroke-width="7" stroke-linecap="round" stroke-linejoin="round"/>
</svg>
