<svg width="30" height="30" viewBox="0 0 30 30" fill="none" xmlns="http://www.w3.org/2000/svg">
<path d="M15 3.74999H15.4912C13.8854 5.24212 12.8532 7.2498 12.5741 9.42402C12.295 11.5982 12.7866 13.8015 13.9634 15.6509C15.1403 17.5003 16.928 18.8788 19.0157 19.5468C21.1035 20.2149 23.3594 20.1302 25.3912 19.3075C24.6097 21.1881 23.3322 22.8213 21.6952 24.0328C20.0582 25.2443 18.1231 25.9888 16.0961 26.1867C14.0692 26.3847 12.0266 26.0287 10.1861 25.1567C8.34564 24.2848 6.77638 22.9296 5.64573 21.2357C4.51507 19.5419 3.86543 17.5728 3.7661 15.5387C3.66677 13.5046 4.12147 11.4816 5.08171 9.68563C6.04194 7.88965 7.47169 6.38802 9.21845 5.34091C10.9652 4.29379 12.9634 3.74048 15 3.73999V3.74999Z" stroke="white" stroke-width="2" stroke-linecap="round" stroke-linejoin="round"/>
</svg>
