<svg width="38" height="38" viewBox="0 0 38 38" fill="none" xmlns="http://www.w3.org/2000/svg">
<path d="M37.75 28.2083V35.575C37.7502 36.1025 37.5504 36.6104 37.1908 36.9962C36.8312 37.3821 36.3387 37.6172 35.8125 37.6542C34.9021 37.7167 34.1583 37.75 33.5833 37.75C15.1729 37.75 0.25 22.8271 0.25 4.41667C0.25 3.84167 0.28125 3.09792 0.345833 2.1875C0.382755 1.66134 0.617877 1.16877 1.00376 0.809185C1.38964 0.449598 1.89755 0.249762 2.425 0.250001H9.79167C10.0501 0.249739 10.2994 0.34554 10.4911 0.518793C10.6828 0.692046 10.8033 0.930381 10.8292 1.1875C10.8771 1.66667 10.9208 2.04792 10.9625 2.3375C11.3765 5.22692 12.225 8.03715 13.4792 10.6729C13.6771 11.0896 13.5479 11.5875 13.1729 11.8542L8.67708 15.0667C11.4259 21.4718 16.5303 26.5761 22.9354 29.325L26.1437 24.8375C26.2749 24.6542 26.4662 24.5227 26.6844 24.4659C26.9025 24.4092 27.1337 24.4309 27.3375 24.5271C29.9729 25.779 32.7824 26.6254 35.6708 27.0375C35.9604 27.0792 36.3417 27.1229 36.8167 27.1708C37.0734 27.1972 37.3112 27.3179 37.4841 27.5095C37.6569 27.7012 37.7503 27.9502 37.75 28.2083Z" fill="#EB8157"/>
</svg>
