<svg width="30" height="30" viewBox="0 0 30 30" fill="none" xmlns="http://www.w3.org/2000/svg">
<path d="M14.9992 25.5C15.397 25.5 15.7786 25.658 16.0599 25.9393C16.3412 26.2206 16.4993 26.6022 16.4993 27V28.5C16.4993 28.8978 16.3412 29.2794 16.0599 29.5607C15.7786 29.842 15.397 30 14.9992 30C14.6013 30 14.2198 29.842 13.9384 29.5607C13.6571 29.2794 13.4991 28.8978 13.4991 28.5V27C13.4991 26.6022 13.6571 26.2206 13.9384 25.9393C14.2198 25.658 14.6013 25.5 14.9992 25.5ZM24.5457 22.425L25.6063 23.4855C25.8795 23.7684 26.0307 24.1473 26.0273 24.5406C26.0239 24.9339 25.8661 25.3101 25.588 25.5882C25.3099 25.8663 24.9336 26.0241 24.5403 26.0275C24.147 26.0309 23.7681 25.8797 23.4851 25.6065L22.4246 24.546C22.1513 24.2631 22.0001 23.8842 22.0035 23.4909C22.007 23.0976 22.1647 22.7214 22.4429 22.4433C22.721 22.1652 23.0972 22.0074 23.4905 22.004C23.8839 22.0006 24.2628 22.1518 24.5457 22.425ZM5.45264 22.425C5.72259 22.156 6.08483 21.9998 6.46577 21.9882C6.84672 21.9765 7.21781 22.1103 7.50367 22.3624C7.78954 22.6144 7.96874 22.9658 8.00488 23.3452C8.04102 23.7246 7.9314 24.1035 7.69826 24.405L7.57376 24.546L6.5132 25.6065C6.24325 25.8755 5.88101 26.0317 5.50007 26.0433C5.11912 26.055 4.74803 25.9212 4.46217 25.6691C4.1763 25.4171 3.9971 25.0657 3.96096 24.6863C3.92482 24.3069 4.03444 23.928 4.26757 23.6265L4.39208 23.4855L5.45264 22.425ZM14.9992 6C17.3862 6 19.6756 6.94821 21.3635 8.63604C23.0514 10.3239 23.9997 12.6131 23.9997 15C23.9997 17.3869 23.0514 19.6761 21.3635 21.364C19.6756 23.0518 17.3862 24 14.9992 24C12.6121 24 10.3228 23.0518 8.63486 21.364C6.94694 19.6761 5.99867 17.3869 5.99867 15C5.99867 12.6131 6.94694 10.3239 8.63486 8.63604C10.3228 6.94821 12.6121 6 14.9992 6ZM14.9992 9C13.4078 9 11.8816 9.63214 10.7563 10.7574C9.63101 11.8826 8.99884 13.4087 8.99884 15C8.99884 16.5913 9.63101 18.1174 10.7563 19.2426C11.8816 20.3679 13.4078 21 14.9992 21C16.5906 21 18.1168 20.3679 19.242 19.2426C20.3673 18.1174 20.9995 16.5913 20.9995 15C20.9995 13.4087 20.3673 11.8826 19.242 10.7574C18.1168 9.63214 16.5906 9 14.9992 9ZM2.9985 13.5C3.38084 13.5004 3.74859 13.6468 4.02661 13.9093C4.30463 14.1717 4.47194 14.5304 4.49434 14.9121C4.51675 15.2938 4.39257 15.6696 4.14717 15.9627C3.90177 16.2559 3.55368 16.4443 3.17401 16.4895L2.9985 16.5H1.49842C1.11608 16.4996 0.748331 16.3532 0.470312 16.0907C0.192292 15.8283 0.0249871 15.4696 0.0025802 15.0879C-0.0198267 14.7062 0.104356 14.3304 0.349755 14.0373C0.595154 13.7441 0.943247 13.5557 1.32291 13.5105L1.49842 13.5H2.9985ZM28.4999 13.5C28.8978 13.5 29.2793 13.658 29.5606 13.9393C29.842 14.2206 30 14.6022 30 15C30 15.3978 29.842 15.7794 29.5606 16.0607C29.2793 16.342 28.8978 16.5 28.4999 16.5H26.9998C26.602 16.5 26.2204 16.342 25.9391 16.0607C25.6578 15.7794 25.4998 15.3978 25.4998 15C25.4998 14.6022 25.6578 14.2206 25.9391 13.9393C26.2204 13.658 26.602 13.5 26.9998 13.5H28.4999ZM4.39208 4.3935C4.65038 4.13523 4.99405 3.98009 5.35861 3.95717C5.72317 3.93424 6.08357 4.04512 6.37219 4.269L6.5132 4.3935L7.57376 5.454C7.8428 5.72394 7.99899 6.08615 8.01062 6.46708C8.02226 6.848 7.88845 7.21907 7.63639 7.50492C7.38432 7.79077 7.0329 7.96996 6.6535 8.0061C6.27409 8.04224 5.89515 7.93262 5.59365 7.6995L5.45264 7.575L4.39208 6.5145C4.11086 6.23321 3.95288 5.85175 3.95288 5.454C3.95288 5.05625 4.11086 4.67479 4.39208 4.3935ZM25.6063 4.3935C25.8875 4.67479 26.0455 5.05625 26.0455 5.454C26.0455 5.85175 25.8875 6.23321 25.6063 6.5145L24.5457 7.575C24.4073 7.71827 24.2418 7.83254 24.0588 7.91115C23.8758 7.98977 23.6789 8.03114 23.4797 8.03288C23.2806 8.03461 23.083 7.99665 22.8987 7.92123C22.7143 7.84581 22.5468 7.73443 22.406 7.59359C22.2651 7.45275 22.1538 7.28528 22.0783 7.10093C22.0029 6.91659 21.9649 6.71907 21.9667 6.5199C21.9684 6.32073 22.0098 6.1239 22.0884 5.94089C22.167 5.75789 22.2813 5.59237 22.4246 5.454L23.4851 4.3935C23.7664 4.11229 24.1479 3.95432 24.5457 3.95432C24.9435 3.95432 25.3249 4.11229 25.6063 4.3935ZM14.9992 0C15.397 0 15.7786 0.158035 16.0599 0.43934C16.3412 0.720644 16.4993 1.10218 16.4993 1.5V3C16.4993 3.39782 16.3412 3.77936 16.0599 4.06066C15.7786 4.34196 15.397 4.5 14.9992 4.5C14.6013 4.5 14.2198 4.34196 13.9384 4.06066C13.6571 3.77936 13.4991 3.39782 13.4991 3V1.5C13.4991 1.10218 13.6571 0.720644 13.9384 0.43934C14.2198 0.158035 14.6013 0 14.9992 0Z" fill="white"/>
</svg>
