<svg width="129" height="94" viewBox="0 0 129 94" fill="none" xmlns="http://www.w3.org/2000/svg">
<path d="M29.3182 94C24.4318 94 20.2784 92.2865 16.858 88.8594C13.4375 85.4323 11.7273 81.2708 11.7273 76.375H0V11.75C0 8.51876 1.14927 5.75163 3.44782 3.44863C5.74636 1.14563 8.50618 -0.00390669 11.7273 9.97454e-06H93.8182V23.5H111.409L129 47V76.375H117.273C117.273 81.2708 115.562 85.4323 112.142 88.8594C108.722 92.2865 104.568 94 99.6818 94C94.7955 94 90.642 92.2865 87.2216 88.8594C83.8011 85.4323 82.0909 81.2708 82.0909 76.375H46.9091C46.9091 81.2708 45.1989 85.4323 41.7784 88.8594C38.358 92.2865 34.2045 94 29.3182 94ZM29.3182 82.25C30.9795 82.25 32.3731 81.686 33.499 80.558C34.6248 79.43 35.1857 78.0357 35.1818 76.375C35.1818 74.7104 34.6189 73.3141 33.4931 72.1861C32.3673 71.0581 30.9756 70.4961 29.3182 70.5C27.6568 70.5 26.2632 71.064 25.1374 72.192C24.0116 73.32 23.4506 74.7143 23.4545 76.375C23.4545 78.0396 24.0175 79.4359 25.1433 80.5639C26.2691 81.6919 27.6607 82.2539 29.3182 82.25ZM11.7273 64.625H16.4182C18.0795 62.8625 19.9852 61.4427 22.1352 60.3656C24.2852 59.2885 26.6795 58.75 29.3182 58.75C31.9568 58.75 34.3511 59.2885 36.5011 60.3656C38.6511 61.4427 40.5568 62.8625 42.2182 64.625H82.0909V11.75H11.7273V64.625ZM99.6818 82.25C101.343 82.25 102.737 81.686 103.863 80.558C104.988 79.43 105.549 78.0357 105.545 76.375C105.545 74.7104 104.983 73.3141 103.857 72.1861C102.731 71.0581 101.339 70.4961 99.6818 70.5C98.0205 70.5 96.6269 71.064 95.5011 72.192C94.3752 73.32 93.8143 74.7143 93.8182 76.375C93.8182 78.0396 94.3811 79.4359 95.5069 80.5639C96.6327 81.6919 98.0244 82.2539 99.6818 82.25ZM93.8182 52.875H118.739L105.545 35.25H93.8182V52.875Z" fill="white"/>
</svg>
