<svg width="50" height="50" viewBox="0 0 50 50" fill="none" xmlns="http://www.w3.org/2000/svg">
<path d="M42.625 7.2749C40.333 4.95972 37.603 3.12407 34.5941 1.87503C31.5852 0.625991 28.3578 -0.0114444 25.1 -9.52166e-05C11.45 -9.52166e-05 0.325 11.1249 0.325 24.7749C0.325 29.1499 1.475 33.3999 3.625 37.1499L0.125 49.9999L13.25 46.5499C16.875 48.5249 20.95 49.5749 25.1 49.5749C38.75 49.5749 49.875 38.4499 49.875 24.7999C49.875 18.1749 47.3 11.9499 42.625 7.2749ZM25.1 45.3749C21.4 45.3749 17.775 44.3749 14.6 42.4999L13.85 42.0499L6.05 44.0999L8.125 36.4999L7.625 35.7249C5.56937 32.4423 4.47785 28.648 4.475 24.7749C4.475 13.4249 13.725 4.17491 25.075 4.17491C30.575 4.17491 35.75 6.32491 39.625 10.2249C41.5437 12.1348 43.0642 14.4066 44.0985 16.9085C45.1327 19.4104 45.6601 22.0927 45.65 24.7999C45.7 36.1499 36.45 45.3749 25.1 45.3749ZM36.4 29.9749C35.775 29.6749 32.725 28.1749 32.175 27.9499C31.6 27.7499 31.2 27.6499 30.775 28.2499C30.35 28.8749 29.175 30.2749 28.825 30.6749C28.475 31.0999 28.1 31.1499 27.475 30.8249C26.85 30.5249 24.85 29.8499 22.5 27.7499C20.65 26.0999 19.425 24.0749 19.05 23.4499C18.7 22.8249 19 22.4999 19.325 22.1749C19.6 21.8999 19.95 21.4499 20.25 21.0999C20.55 20.7499 20.675 20.4749 20.875 20.0749C21.075 19.6499 20.975 19.2999 20.825 18.9999C20.675 18.6999 19.425 15.6499 18.925 14.3999C18.425 13.1999 17.9 13.3499 17.525 13.3249H16.325C15.9 13.3249 15.25 13.4749 14.675 14.0999C14.125 14.7249 12.525 16.2249 12.525 19.2749C12.525 22.3249 14.75 25.2749 15.05 25.6749C15.35 26.0999 19.425 32.3499 25.625 35.0249C27.1 35.6749 28.25 36.0499 29.15 36.3249C30.625 36.7999 31.975 36.7249 33.05 36.5749C34.25 36.3999 36.725 35.0749 37.225 33.6249C37.75 32.1749 37.75 30.9499 37.575 30.6749C37.4 30.3999 37.025 30.2749 36.4 29.9749Z" fill="black"/>
</svg>
